<mxfile host="app.diagrams.net" modified="2023-05-24T16:07:18.121Z" agent="Mozilla/5.0 (Macintosh; Intel Mac OS X 10_15_7) AppleWebKit/537.36 (KHTML, like Gecko) Chrome/113.0.0.0 Safari/537.36" version="21.3.3" etag="B4sXLURCZsPjHKbPRA6R" type="github">
  <diagram name="Page-1" id="5V0ELaI8BsF4lh8QCdKG">
    <mxGraphModel>
      <root>
        <mxCell id="0" />
        <mxCell id="1" parent="0" />
      </root>
    </mxGraphModel>
  </diagram>
</mxfile>
